<?xml version="1.0" encoding="utf-8"?>
<!-- Generator: Adobe Illustrator 15.1.0, SVG Export Plug-In . SVG Version: 6.00 Build 0)  -->
<!DOCTYPE svg PUBLIC "-//W3C//DTD SVG 1.1//EN" "http://www.w3.org/Graphics/SVG/1.1/DTD/svg11.dtd">
<svg version="1.1" id="border_dotted" xmlns="http://www.w3.org/2000/svg" xmlns:xlink="http://www.w3.org/1999/xlink" x="0px"
	 y="0px" width="25px" height="25px" viewBox="0 0 25 25" enable-background="new 0 0 25 25" xml:space="preserve">
<g>
	<rect x="15" y="6" width="1" height="1"/>
	<rect x="5" y="16" width="1" height="1"/>
	<rect x="7" y="6" width="1" height="1"/>
	<rect x="13" y="6" width="1" height="1"/>
	<rect x="7" y="20" width="1" height="1"/>
	<rect x="11" y="6" width="1" height="1"/>
	<rect x="9" y="6" width="1" height="1"/>
	<rect x="5" y="14" width="1" height="1"/>
	<rect x="19" y="6" width="1" height="1"/>
	<rect x="5" y="10" width="1" height="1"/>
	<rect x="17" y="20" width="1" height="1"/>
	<rect x="5" y="8" width="1" height="1"/>
	<rect x="5" y="12" width="1" height="1"/>
	<rect x="5" y="18" width="1" height="1"/>
	<rect x="19" y="10" width="1" height="1"/>
	<rect x="19" y="8" width="1" height="1"/>
	<rect x="19" y="12" width="1" height="1"/>
	<rect x="5" y="20" width="1" height="1"/>
	<rect x="19" y="20" width="1" height="1"/>
	<rect x="9" y="20" width="1" height="1"/>
	<rect x="19" y="14" width="1" height="1"/>
	<rect x="5" y="6" width="1" height="1"/>
	<rect x="13" y="20" width="1" height="1"/>
	<rect x="19" y="16" width="1" height="1"/>
	<rect x="11" y="20" width="1" height="1"/>
	<rect x="15" y="20" width="1" height="1"/>
	<rect x="17" y="6" width="1" height="1"/>
	<rect x="19" y="18" width="1" height="1"/>
</g>
</svg>
