<?xml version="1.0" encoding="utf-8"?>
<!-- Generator: Adobe Illustrator 15.1.0, SVG Export Plug-In . SVG Version: 6.00 Build 0)  -->
<!DOCTYPE svg PUBLIC "-//W3C//DTD SVG 1.1//EN" "http://www.w3.org/Graphics/SVG/1.1/DTD/svg11.dtd">
<svg version="1.1" id="zoom" xmlns="http://www.w3.org/2000/svg" xmlns:xlink="http://www.w3.org/1999/xlink" x="0px" y="0px"
	 width="25px" height="25px" viewBox="0 0 25 25" enable-background="new 0 0 25 25" xml:space="preserve">
<g>
	<g>
		<path fill-rule="evenodd" clip-rule="evenodd" d="M20.036,17.414c0,0-1.875-1.646-3.389-2.976c0.84-1.094,1.344-2.458,1.344-3.943
			c0-3.583-2.904-6.487-6.487-6.487s-6.488,2.904-6.488,6.487s2.905,6.487,6.488,6.487c1.226,0,2.368-0.346,3.345-0.937
			c1.344,1.53,3.065,3.489,3.065,3.489c0.586,0.586,1.536,0.586,2.122,0C20.621,18.95,20.621,18,20.036,17.414z M11.505,14.41
			c-2.163,0-3.916-1.754-3.916-3.916c0-2.163,1.753-3.916,3.916-3.916c2.163,0,3.916,1.753,3.916,3.916
			C15.421,12.656,13.668,14.41,11.505,14.41z"/>
	</g>
</g>
</svg>
